# xmcd CD database file
#
# Track frame offsets:
#	150
#	19505
#	45231
#	65235
#	95370
#	126792
#	152305
#	179795
#	208570
#	243697
#	265109
#	280125
#	302364
#	329407
#
# Disc length: 4744 seconds
#
# Revision: 0
# Processed by: cddbd v1.5.2PL0 Copyright (c) Steve Scherf et al.
# Submitted via: Hanso CD Extractor 
#
DISCID=bd12860e
DTITLE=El Prodigio - Su Regreso
DYEAR=1900
DGENRE=Merengue
TTITLE0=La Cuchilla
TTITLE1=El Refran
TTITLE2=El Sentenciado
TTITLE3=Hasta El Rio Fuimos Juntos
TTITLE4=La Muerte De Martin
TTITLE5=La Parrandera
TTITLE6=Los Camiones
TTITLE7=Maria Morena
TTITLE8=Mi Lindo Pais
TTITLE9=Pa Fuera
TTITLE10=Que Bonita Luna
TTITLE11=Respetala
TTITLE12=Las Indias De Bani
TTITLE13=El Comisario
EXTD=
EXTT0=
EXTT1=
EXTT2=
EXTT3=
EXTT4=
EXTT5=
EXTT6=
EXTT7=
EXTT8=
EXTT9=
EXTT10=
EXTT11=
EXTT12=
EXTT13=
PLAYORDER=
